<?xml version="1.0" encoding="UTF-8" standalone="no"?>
<!DOCTYPE svg PUBLIC "-//W3C//DTD SVG 1.1//EN" "http://www.w3.org/Graphics/SVG/1.1/DTD/svg11.dtd">
<svg version="1.1" xmlns="http://www.w3.org/2000/svg" xmlns:xlink="http://www.w3.org/1999/xlink" preserveAspectRatio="xMidYMid meet" viewBox="0 0 640 640" width="640" height="640"><defs><path d="M590.71 116.43C600 116.43 607.52 123.96 607.52 133.24C607.52 211.31 607.52 428.69 607.52 506.76C607.52 516.04 600 523.57 590.71 523.57C479.36 523.57 162.12 523.57 50.77 523.57C41.48 523.57 33.95 516.04 33.95 506.76C33.95 428.69 33.95 211.31 33.95 133.24C33.95 123.96 41.48 116.43 50.77 116.43C162.12 116.43 479.36 116.43 590.71 116.43Z" id="a11NHrH2xo"></path><path d="M8 210.37L617 210.37L617 275.37L8 275.37L8 210.37Z" id="d1wfDTVvBL"></path><path d="M548.94 424.37C548.94 446.44 531.02 464.37 508.94 464.37C486.87 464.37 468.94 446.44 468.94 424.37C468.94 402.29 486.87 384.37 508.94 384.37C531.02 384.37 548.94 402.29 548.94 424.37Z" id="e3FPZYaw3"></path><path d="M496.94 424.37C496.94 446.44 479.02 464.37 456.94 464.37C434.87 464.37 416.94 446.44 416.94 424.37C416.94 402.29 434.87 384.37 456.94 384.37C479.02 384.37 496.94 402.29 496.94 424.37Z" id="b20Wy4Whun"></path><path d="M185.94 320L185.94 320L123.94 320L185.94 320Z" id="amYOCNGXN"></path><path d="M100.94 310.87L234.96 310.87L234.96 334.87L100.94 334.87L100.94 310.87Z" id="b7AhPpo36b"></path></defs><g><g><g><g><use xlink:href="#a11NHrH2xo" opacity="1" fill-opacity="0" stroke="#bae1ff" stroke-width="65" stroke-opacity="1"></use></g></g><g><use xlink:href="#d1wfDTVvBL" opacity="1" fill="#bae1ff" fill-opacity="1"></use></g><g><use xlink:href="#e3FPZYaw3" opacity="1" fill="#bae1ff" fill-opacity="1"></use></g><g><use xlink:href="#b20Wy4Whun" opacity="1" fill="#bae1ff" fill-opacity="1"></use></g><g><use xlink:href="#amYOCNGXN" opacity="1" fill="#b3a511" fill-opacity="1"></use></g><g><use xlink:href="#b7AhPpo36b" opacity="1" fill="#bae1ff" fill-opacity="1"></use></g></g></g></svg>